<svg xmlns="http://www.w3.org/2000/svg" viewBox="0 0 424.91 118.63"><defs><style>.cls-1{fill:none;}.cls-1,.cls-3{stroke:#000;stroke-miterlimit:10;}.cls-2{fill:#fff;}</style></defs><g id="Layer_2" data-name="Layer 2"><g id="Layer_3" data-name="Layer 3"><path d="M145.48,0H0V93.39a13.45,13.45,0,0,0,13.45,13.45H198.9V53.42A53.42,53.42,0,0,0,145.48,0ZM25.17,20a13.23,13.23,0,0,1-2.11,2.82C23.73,21.89,24.43,21,25.17,20Zm0,66.74c-.72-.9-1.41-1.82-2.06-2.77A13,13,0,0,1,25.15,86.78Z"/><path class="cls-1" d="M25.17,20a13.23,13.23,0,0,1-2.11,2.82C23.73,21.89,24.43,21,25.17,20Z"/><path class="cls-1" d="M23.09,84a13,13,0,0,1,2.06,2.77C24.43,85.88,23.74,85,23.09,84Z"/><path class="cls-1" d="M25.17,20a13.23,13.23,0,0,1-2.11,2.82C23.73,21.89,24.43,21,25.17,20Z"/><path class="cls-1" d="M23.09,84a13,13,0,0,1,2.06,2.77C24.43,85.88,23.74,85,23.09,84Z"/><path class="cls-1" d="M25.17,20a13.23,13.23,0,0,1-2.11,2.82C23.73,21.89,24.43,21,25.17,20Z"/><path class="cls-1" d="M25.15,86.78c-.72-.9-1.41-1.82-2.06-2.77A13,13,0,0,1,25.15,86.78Z"/><path class="cls-2" d="M64.66,52.43A205,205,0,0,0,43.6,46.32C32,43.72,26.44,39.69,26.44,34.1c.39-6.76,5.07-10.27,14.43-10.4,7.67,0,13,2.47,16,7.54,1.69,3.38,4.29,5.2,8.06,5.2h9.55a.57.57,0,0,0,.56-.6C73.79,17.91,63,9,42.43,9,20.59,8.88,9.54,18,9.15,36.57c0,11.7,8.58,19.76,25.87,24.18,6.37,1.69,12.35,3.25,17.55,4.81C58,67.12,60.63,70,60.63,74.27c.13,7.28-5.46,10.92-17,10.92-11.36,0-17.33-4.51-18.16-13.54a.54.54,0,0,0-.54-.5H8.42a.56.56,0,0,0-.55.58c.74,18.85,12.57,28.41,35.73,28.41,22.36,0,34.06-8.58,35.1-25.87Q79.48,57.5,64.66,52.43Z"/><path class="cls-2" d="M108.08,46.08c-16.1.1-24,8.16-24,26.16s8,27.3,24,27.8C120.82,100,128,94.1,131,83.34a.55.55,0,0,0-.53-.7h-9.08a5.83,5.83,0,0,0-4.5,1.9,12.29,12.29,0,0,1-8.6,3.8c-6.34,0-9.82-3.9-10.46-11.6a.56.56,0,0,1,.55-.6h33.08a.57.57,0,0,0,.56-.53C132.85,55.26,124.74,46.08,108.08,46.08Zm7.67,20.56H100.19a1.81,1.81,0,0,1-1.78-2.21C99.77,58.88,103,56,108.09,56s8.26,2.86,9.45,8.44A1.81,1.81,0,0,1,115.75,66.64Z"/><path class="cls-2" d="M164.06,46.15A23.45,23.45,0,0,0,140.19,69.7V99.29a.55.55,0,0,0,.54.55h12.41a.55.55,0,0,0,.55-.55V66c.1-5.5,3.1-8.2,9-8.2s8.9,2.7,9.2,8.2v27.2c0,4.2,2.2,6.3,6.6,6.6h6.25a.55.55,0,0,0,.55-.55V68.74C185.39,54,178.37,46.53,164.06,46.15Z"/><path d="M285.64,46.41a1.2,1.2,0,0,1,1.17,1.2V79.94c.3,5.51,3.3,8.21,9.2,8.21s8.9-2.7,9-8.21v-27a6.81,6.81,0,0,1,6.8-6.8H318a.55.55,0,0,1,.55.55V76.28a23.45,23.45,0,0,1-23.88,23.55c-14.31-.38-21.33-7.88-21.23-22.59V46.69a.55.55,0,0,1,.55-.55Z"/><path class="cls-3" d="M264.77,70.64c-.63-14.84-13.43-26.76-28.75-26.8a29.55,29.55,0,0,0-11.92,2.45.61.61,0,0,1-.85-.55V7.62a.6.6,0,0,0-.6-.61h-2.81A12.8,12.8,0,0,0,207,19.81v51.5a28.72,28.72,0,0,0,27.48,28.48C251.51,100.57,265.48,87.09,264.77,70.64Zm-12.69,3a16,16,0,0,1-14.33,13.84c-9.8,1-18.1-6.37-18.1-15.65a16,16,0,0,1,16.28-15.78C245.52,56.06,253.19,64.13,252.08,73.65Z"/><path d="M364.11,46.14c-3.4,0-5.5.49-6.3,3.58l-8.19,28.5a1,1,0,0,1-2,0L338.33,46.9a1.05,1.05,0,0,0-1-.76H324.48a1,1,0,0,0-1,1.39L341,96.73c1.09,3.62.91,6.34-.52,8.11s-3.76,2.49-7.28,2.49h-2.65a1,1,0,0,0-1.05,1v9.05a1,1,0,0,0,.93,1,42.26,42.26,0,0,0,4.67.16c11,0,14.2-3,17.4-11.7l.71-2.09,19.72-57.32a1,1,0,0,0-1-1.38Z"/><path d="M421.26,72.68a.94.94,0,0,0-.1-.1c-2.92-2.68-8.8-5-17.75-6.76-6.9-1.3-10.3-3.4-10.3-6.1s2.6-4.1,7.8-4.1c4.4,0,7.1,1.3,8,3.6.8,2.1,2.8,3.2,5.9,3.3h7.1a1.2,1.2,0,0,0,1.19-1.35c-.55-4.86-2.56-7.74-6.14-10.59q-6-4.5-16.2-4.5c-12.1.21-21.15,4.64-21.15,16,.1,8.3,6.1,13.5,17.8,15.6,9.1,1.6,13.7,3.8,13.7,6.5,0,3.4-2.8,5-8.4,5-6.1,0-10.18-1.76-10.9-6.77a1.2,1.2,0,0,0-1.18-1h-11.3a1.19,1.19,0,0,0-1.19,1.23c.25,5.49,2.24,9.68,6,12.47,3.6,3.1,9.2,4.7,16.6,4.7,14,0,24.2-4.8,24.2-17.8A13.11,13.11,0,0,0,421.26,72.68Z"/></g></g></svg>